<?xml version="1.0" encoding="iso-8859-1"?>
<!-- Generator: Adobe Illustrator 17.1.0, SVG Export Plug-In . SVG Version: 6.00 Build 0)  -->
<!DOCTYPE svg PUBLIC "-//W3C//DTD SVG 1.1//EN" "http://www.w3.org/Graphics/SVG/1.1/DTD/svg11.dtd">
<svg version="1.1" id="Capa_1" xmlns="http://www.w3.org/2000/svg" xmlns:xlink="http://www.w3.org/1999/xlink" x="0px" y="0px"
	 viewBox="0 0 460.733 460.733" style="enable-background:new 0 0 460.733 460.733;" xml:space="preserve">
<path d="M381.963,446.983c-1.43-5.334-6.916-8.501-12.247-7.071c-11.418,3.059-23.734-3.047-30.129-13.869
	c9.256-5.379,16.592-14.266,21.159-25.878c5.755-14.632,6.417-32.048,1.864-49.038c-8.375-31.256-31.87-53.125-57.228-53.349
	c-3.923-20.738-19.165-38.626-43.979-51.369l-7.813-22.068c8.49-28.361,33.07-110.744,51.444-175
	c3.514-12.285,2.739-23.425-2.238-32.216c-4.608-8.138-12.662-13.945-23.292-16.793c-0.036-0.01-0.071-0.014-0.107-0.023
	c-0.186-0.048-0.374-0.084-0.561-0.12c-0.144-0.028-0.288-0.061-0.431-0.083c-0.184-0.028-0.366-0.044-0.55-0.061
	c-0.149-0.014-0.299-0.032-0.448-0.04c-0.171-0.009-0.341-0.005-0.511-0.005c-0.16,0-0.321-0.003-0.48,0.005
	c-0.156,0.008-0.311,0.026-0.467,0.042c-0.17,0.016-0.34,0.03-0.508,0.055c-0.146,0.022-0.29,0.054-0.434,0.082
	c-0.172,0.034-0.345,0.065-0.515,0.107c-0.143,0.036-0.283,0.082-0.423,0.124c-0.166,0.05-0.333,0.096-0.495,0.154
	c-0.145,0.052-0.286,0.113-0.428,0.171c-0.152,0.062-0.305,0.121-0.454,0.19c-0.151,0.07-0.296,0.151-0.443,0.228
	c-0.134,0.071-0.27,0.138-0.4,0.215c-0.154,0.09-0.301,0.19-0.449,0.289c-0.117,0.077-0.236,0.151-0.35,0.233
	c-0.15,0.109-0.293,0.227-0.437,0.344c-0.105,0.085-0.212,0.166-0.313,0.256c-0.139,0.122-0.269,0.253-0.401,0.383
	c-0.099,0.097-0.2,0.191-0.294,0.292c-0.121,0.129-0.233,0.267-0.347,0.403c-0.096,0.115-0.195,0.227-0.286,0.346
	c-0.1,0.131-0.191,0.269-0.285,0.406c-0.094,0.136-0.19,0.27-0.277,0.412c-0.081,0.131-0.153,0.268-0.228,0.404
	c-0.087,0.157-0.175,0.312-0.254,0.474c-0.067,0.137-0.124,0.28-0.185,0.422c-0.072,0.168-0.146,0.334-0.209,0.508
	c-0.013,0.037-0.031,0.071-0.044,0.108l-45.499,128.49c-1.803-4.91-7.128-7.644-12.213-6.137l-24.674,7.309
	c-0.676-2.291-1.356-4.6-2.04-6.925l23.25-6.887c5.296-1.569,8.317-7.133,6.748-12.428c-1.567-5.296-7.134-8.317-12.428-6.748
	l-23.208,6.875c-0.676-2.304-1.352-4.614-2.029-6.928l21.773-6.449c5.296-1.569,8.317-7.133,6.748-12.428
	c-1.569-5.295-7.135-8.317-12.428-6.748l-21.696,6.427c-0.674-2.317-1.346-4.628-2.015-6.932l20.245-5.997
	c5.296-1.569,8.317-7.133,6.748-12.428c-1.568-5.296-7.135-8.318-12.428-6.748l-20.122,5.96c-0.671-2.331-1.337-4.645-1.995-6.938
	l18.653-5.525c5.296-1.569,8.317-7.133,6.748-12.428c-1.567-5.296-7.136-8.317-12.428-6.748l-15.991,4.737
	c0.287-1.364,0.742-2.679,1.427-3.889c1.934-3.414,5.656-5.88,11.064-7.329c5.335-1.43,8.501-6.913,7.071-12.247
	c-1.43-5.335-6.913-8.502-12.247-7.071c-10.63,2.848-18.684,8.655-23.292,16.792c-4.978,8.791-5.752,19.931-2.238,32.216
	c11.927,41.711,26.681,91.762,37.721,128.949c0.004,0.013,0.005,0.025,0.009,0.038c0.004,0.013,0.009,0.025,0.013,0.037
	c6.005,20.227,10.906,36.632,13.653,45.81l-7.782,21.971c-24.787,12.718-40.032,30.586-43.999,51.315
	c-25.343,0.246-48.819,22.108-57.189,53.348c-4.553,16.991-3.891,34.406,1.864,49.039c6.167,15.682,17.375,26.411,31.559,30.212
	c3.561,0.954,7.245,1.438,10.95,1.438c22.843,0,44.222-17.605,54.487-43.846l3.276,0.878c0.867,0.232,1.737,0.343,2.594,0.343
	c4.415,0,8.456-2.947,9.653-7.415c1.43-5.334-1.736-10.818-7.071-12.247l-3.279-0.878c2.065-13.766,0.744-27.408-3.906-39.233
	c-4.936-12.553-13.109-21.92-23.446-27.113c3.33-19.733,21.455-32.352,36.901-39.664c0.061-0.029,0.117-0.065,0.177-0.095
	l26.667-12.625l27.218,12.885c0.04,0.019,0.081,0.031,0.121,0.049c0.175,0.08,0.35,0.158,0.53,0.228
	c15.319,7.383,32.972,19.943,36.177,39.4c-10.32,5.196-18.479,14.556-23.41,27.094c-5.755,14.632-6.417,32.048-1.864,49.038
	c8.418,31.415,32.111,53.358,57.619,53.36c0.001,0,0.002,0,0.003,0c0.587,0,1.172-0.033,1.758-0.057
	c8.139,17.665,25.298,28.975,43.506,28.975c3.773,0,7.597-0.487,11.389-1.503C380.226,457.801,383.392,452.317,381.963,446.983z
	 M164.092,373.12c-5.887,21.969-22.352,38.536-38.301,38.536c-1.958,0-3.901-0.254-5.774-0.756
	c-7.899-2.117-14.336-8.585-18.122-18.213c-4.2-10.678-4.611-23.656-1.158-36.542c5.887-21.969,22.353-38.536,38.302-38.536
	c1.957,0,3.9,0.254,5.773,0.757c7.899,2.117,14.336,8.585,18.122,18.213C167.134,347.256,167.545,360.234,164.092,373.12z
	 M226.098,229.646L226.098,229.646l-15.429-7.304c-2.033-6.787-6.351-21.22-11.92-39.95l16.992-5.033l20.153,56.924L226.098,229.646
	z M285.806,43.842c-14.247,49.822-32.239,110.586-43.539,148.516l-9.659-27.282l50.054-141.353c1.127,0.967,2.046,2.05,2.73,3.257
	C288.267,32.057,287.204,38.952,285.806,43.842z M215.457,148.183c0.817-0.242,1.572-0.589,2.272-1.005l-3.455,9.756l-21.217,6.285
	c-0.75-2.529-1.514-5.108-2.288-7.723L215.457,148.183z M279.935,373.279c-3.453-12.886-3.042-25.864,1.158-36.542
	c3.786-9.628,10.223-16.096,18.122-18.213c1.873-0.502,3.815-0.756,5.773-0.756c15.949,0,32.415,16.567,38.302,38.536
	c6.72,25.08-2.109,50.155-19.28,54.756c-1.873,0.502-3.815,0.756-5.772,0.756c0,0-0.001,0-0.002,0
	C302.288,411.814,285.822,395.247,279.935,373.279z"/>
<g>
</g>
<g>
</g>
<g>
</g>
<g>
</g>
<g>
</g>
<g>
</g>
<g>
</g>
<g>
</g>
<g>
</g>
<g>
</g>
<g>
</g>
<g>
</g>
<g>
</g>
<g>
</g>
<g>
</g>
</svg>
